#!OML:ASF F:\VICON\USERDATA\INSTALL\rory3\rory3.ASF
:FULLY-SPECIFIED
:DEGREES
1279
root -14.8564 17.5385 12.1856 -90.8552 89.6403 267.3
lowerback 9.12117 3.79183 -0.10502
upperback 0.664503 5.02467 -0.739701
thorax -4.35173 2.49302 -1.34573
lowerneck -14.151 -1.88372 -10.5708
upperneck 40.0304 0.657043 5.4707
head 16.9181 0.098867 4.70648
rclavicle 3.80424e-014 -1.98785e-015
rhumerus -35.2842 -16.5216 -77.0229
rradius 30.9394
rwrist 8.35982
rhand -13.1291 9.88108
rfingers 7.12502
rthumb 12.9688 -19.6959
lclavicle 3.80424e-014 -1.98785e-015
lhumerus -30.4302 10.0282 74.4014
lradius 30.0557
lwrist -1.06271
lhand -26.6719 21.7826
lfingers 7.12502
lthumb -0.103201 51.7623
rfemur -8.174 -14.8007 21.4071
rtibia 33.6508
rfoot -23.2312 -8.40215
rtoes -0.879936
lfemur -10.7601 4.33971 -20.0347
ltibia 34.4564
lfoot -17.5891 9.47647
ltoes -7.0537
1280
root -14.8892 17.5493 12.1676 -48.1534 88.8834 309.806
lowerback 9.14339 3.74602 0.629515
upperback 0.657844 5.0395 -0.701567
thorax -4.31097 2.48704 -1.71615
lowerneck -14.4063 -1.78335 -10.4196
upperneck 40.0175 0.78909 5.39575
head 16.958 0.155051 4.66923
rclavicle 1.7344e-014 7.95139e-016
rhumerus -35.0645 -16.2305 -77.259
rradius 30.9038
rwrist 8.02303
rhand -13.1596 9.894
rfingers 7.12502
rthumb 12.9393 -19.6848
lclavicle 1.7344e-014 7.95139e-016
lhumerus -30.3062 10.5427 74.3714
lradius 30.0657
lwrist -1.23154
lhand -27.133 21.3986
lfingers 7.12502
lthumb -0.548569 51.3777
rfemur -8.50532 -14.371 21.9131
rtibia 33.463
rfoot -22.9121 -7.77036
rtoes -0.0976722
lfemur -11.5985 4.70179 -19.5181
ltibia 35.5782
lfoot -17.5273 9.33386
ltoes -7.18753
1281
root -14.9227 17.5509 12.1489 -42.5618 88.1293 315.397
lowerback 9.36127 3.64443 1.31279
upperback 0.70774 4.97862 -0.670253
thorax -4.32699 2.44474 -2.06857
lowerneck -14.6334 -1.65396 -10.1429
upperneck 39.9486 0.942116 5.24334
head 16.9576 0.228825 4.57242
rclavicle -4.27139e-014 6.95746e-015
rhumerus -34.871 -16.076 -77.4983
rradius 30.879
rwrist 8.02171
rhand -13.2395 10.0494
rfingers 7.12502
rthumb 12.8623 -19.5342
lclavicle -4.27139e-014 6.95746e-015
lhumerus -30.2712 11.3576 74.276
lradius 30.1478
lwrist -1.6356
lhand -27.6211 21.3172
lfingers 7.12502
lthumb -1.01997 51.2945
rfemur -8.61619 -13.8929 22.3079
rtibia 33.3228
rfoot -22.6424 -7.13548
rtoes 0.782268
lfemur -12.2962 5.19278 -18.9961
ltibia 36.807
lfoot -17.289 9.14691
ltoes -9.92073
1282
root -14.9523 17.5517 12.1272 -39.6026 87.5725 318.499
lowerback 9.69701 3.51278 1.78064
upperback 0.764756 4.86335 -0.573818
thorax -4.42905 2.37864 -2.2363
lowerneck -14.6642 -1.54027 -9.98498
upperneck 39.824 1.12424 5.00937
head 16.8781 0.290185 4.45689
rclavicle -4.70126e-014 7.35503e-015
rhumerus -34.7998 -15.732 -77.5152
rradius 30.9169
rwrist 7.91021
rhand -13.3494 10.0509
rfingers 7.12502
rthumb 12.7564 -19.5394
lclavicle -4.70126e-014 7.35503e-015
lhumerus -30.3848 12.3268 74.2968
lradius 30.2343
lwrist -2.05182
lhand -27.8909 21.3115
lfingers 7.12502
lthumb -1.28053 51.2874
rfemur -8.52823 -13.5677 22.4774
rtibia 33.1913
rfoot -22.4257 -6.71151
rtoes 0.364759
lfemur -12.9074 5.68798 -18.5934
ltibia 38.1067
lfoot -16.9772 8.43257
ltoes -11.9219
1283
root -14.9788 17.5574 12.1086 -34.7783 87.1059 323.413
lowerback 9.90738 3.44937 1.97793
upperback 0.841458 4.80997 -0.472957
thorax -4.46129 2.34984 -2.24655
lowerneck -14.6067 -1.49854 -10.0325
upperneck 39.6638 1.19622 4.92073
head 16.7694 0.297672 4.42224
rclavicle -2.66371e-014 -2.08724e-015
rhumerus -34.6876 -15.3478 -77.4017
rradius 30.9236
rwrist 7.50569
rhand -13.4295 10.0312
rfingers 7.12502
rthumb 12.6792 -19.5639
lclavicle -2.66371e-014 -2.08724e-015
lhumerus -30.3453 12.9824 74.5308
lradius 30.1642
lwrist -2.13836
lhand -28.0978 21.096
lfingers 7.12502
lthumb -1.48039 51.0706
rfemur -8.47788 -13.2631 22.4713
rtibia 33.0643
rfoot -22.2265 -6.4095
rtoes -0.745658
lfemur -13.5745 6.02945 -18.3609
ltibia 39.4099
lfoot -16.537 7.50159
ltoes -12.5078
1284
root -15.0029 17.5598 12.0952 -30.6306 86.6581 327.662
lowerback 10.0504 3.42266 1.99877
upperback 0.968819 4.78519 -0.37813
thorax -4.41558 2.34089 -2.16144
lowerneck -14.6001 -1.48178 -10.0921
upperneck 39.4926 1.18529 4.95502
head 16.6745 0.285235 4.43214
rclavicle -4.8988e-014 -3.18055e-015
rhumerus -34.5106 -15.1021 -77.277
rradius 30.8871
rwrist 7.3447
rhand -13.5365 10.0954
rfingers 7.12502
rthumb 12.576 -19.5061
lclavicle -4.8988e-014 -3.18055e-015
lhumerus -30.1898 13.4747 74.8476
lradius 30.1039
lwrist -2.01083
lhand -28.1981 21.0543
lfingers 7.12502
lthumb -1.57723 51.0282
rfemur -8.39852 -12.9647 22.4202
rtibia 32.9219
rfoot -22.0153 -6.07213
rtoes -1.0159
lfemur -14.1967 6.04411 -18.1388
ltibia 40.6805
lfoot -16.0554 6.59643
ltoes -13.163
1285
root -15.0235 17.5612 12.0871 -27.9021 86.2686 330.585
lowerback 10.2444 3.34197 1.87923
upperback 1.11509 4.67608 -0.250833
thorax -4.39618 2.29282 -1.95656
lowerneck -14.6496 -1.43094 -10.0673
upperneck 39.4235 1.24873 4.91159
head 16.6423 0.303465 4.4129
rclavicle -8.82107e-015 -2.38542e-015
rhumerus -34.3083 -14.9024 -77.1566
rradius 30.8058
rwrist 7.42659
rhand -13.6324 10.1457
rfingers 7.12502
rthumb 12.4835 -19.4614
lclavicle -8.82107e-015 -2.38542e-015
lhumerus -30.1325 14.3545 75.0413
lradius 30.0256
lwrist -2.29786
lhand -28.0397 20.9764
lfingers 7.12502
lthumb -1.4243 50.9514
rfemur -8.2019 -12.5767 22.3826
rtibia 32.7603
rfoot -21.8006 -5.82835
rtoes -0.505962
lfemur -14.6839 5.83726 -17.8316
ltibia 41.8947
lfoot -15.6688 5.15522
ltoes -11.5993
